# xmcd CD database file
#
# Track frame offsets:
#	150
#	35727
#	55452
#	70377
#	93865
#	141862
#	156585
#
# Disc length: 2572 seconds
#
# Revision: 0
# Processed by: cddbd v1.4PL0 Copyright (c) Steve Scherf et al.
# Submitted via: CDex 1.50beta10
#
DISCID=670a0a07
DTITLE=Howard McGhee - Maggie's Back In Town
DYEAR=1961
DGENRE=Jazz
TTITLE0=Demon Chase
TTITLE1=Willow Weep For Me
TTITLE2=Softly As In A Morning Suinrise
TTITLE3=Sunset Eyes
TTITLE4=Maggie's Back In Town
TTITLE5=Summertime
TTITLE6=Brownie Speaks
EXTD=YEAR: 1961
EXTT0=
EXTT1=
EXTT2=
EXTT3=
EXTT4=
EXTT5=
EXTT6=
PLAYORDER=
